<svg aria-hidden="true" style="position: absolute; width: 0; height: 0; overflow: hidden;"
    version="1.1" xmlns="http://www.w3.org/2000/svg" xmlns:xlink="http://www.w3.org/1999/xlink">
    <defs>

        <symbol xmlns="http://www.w3.org/2000/svg" viewBox="0 0 35 35" id="menu">
            <path d="M26.25 14.5833H8.75" stroke="currentColor" stroke-width="2"
                stroke-linecap="round"
                stroke-linejoin="round"></path>
            <path d="M30.625 8.75H4.375" stroke="currentColor" stroke-width="2"
                stroke-linecap="round"
                stroke-linejoin="round"></path>
            <path d="M30.625 20.4167H4.375" stroke="currentColor" stroke-width="2"
                stroke-linecap="round"
                stroke-linejoin="round"></path>
            <path d="M26.25 26.25H8.75" stroke="currentColor" stroke-width="2"
                stroke-linecap="round"
                stroke-linejoin="round"></path>
        </symbol>

        <symbol fill="none" xmlns="http://www.w3.org/2000/svg" viewBox="0 0 18 18" id="left-arrow">
            <path d="M11.0455 13.0909L6.95459 9L11.0455 4.90909" stroke="currentColor"
                stroke-width="2"
                stroke-linecap="round" stroke-linejoin="round"></path>
        </symbol>

        <symbol fill="none" xmlns="http://www.w3.org/2000/svg" viewBox="0 0 24 24" id="briefcase">
            <path
                d="M20 7H4C2.89543 7 2 7.89543 2 9V19C2 20.1046 2.89543 21 4 21H20C21.1046 21 22 20.1046 22 19V9C22 7.89543 21.1046 7 20 7Z"
                stroke="currentColor" stroke-width="2" stroke-linecap="round"
                stroke-linejoin="round"></path>
            <path
                d="M16 21V5C16 4.46957 15.7893 3.96086 15.4142 3.58579C15.0391 3.21071 14.5304 3 14 3H10C9.46957 3 8.96086 3.21071 8.58579 3.58579C8.21071 3.96086 8 4.46957 8 5V21"
                stroke="currentColor" stroke-width="2" stroke-linecap="round"
                stroke-linejoin="round"></path>
        </symbol>


        <symbol fill="none" xmlns="http://www.w3.org/2000/svg" viewBox="0 0 24 24" id="home">
            <path
                d="M3 9L12 2L21 9V20C21 20.5304 20.7893 21.0391 20.4142 21.4142C20.0391 21.7893 19.5304 22 19 22H5C4.46957 22 3.96086 21.7893 3.58579 21.4142C3.21071 21.0391 3 20.5304 3 20V9Z"
                stroke="currentColor" stroke-width="2" stroke-linecap="round"
                stroke-linejoin="round"></path>
            <path d="M9 22V12H15V22" stroke="currentColor" stroke-width="2" stroke-linecap="round"
                stroke-linejoin="round"></path>
        </symbol>

        <symbol fill="none" xmlns="http://www.w3.org/2000/svg" viewBox="0 0 24 24" id="map">
            <path d="M1 6V22L8 18L16 22L23 18V2L16 6L8 2L1 6Z" stroke="currentColor"
                stroke-width="2"
                stroke-linecap="round" stroke-linejoin="round"></path>
            <path d="M8 2V18" stroke="currentColor" stroke-width="2" stroke-linecap="round"
                stroke-linejoin="round"></path>
            <path d="M16 6V22" stroke="currentColor" stroke-width="2" stroke-linecap="round"
                stroke-linejoin="round"></path>
        </symbol>


    </defs>
</svg>